<?xml version="1.0" standalone="no"?><!DOCTYPE svg PUBLIC "-//W3C//DTD SVG 1.1//EN" "http://www.w3.org/Graphics/SVG/1.1/DTD/svg11.dtd"><svg t="1645912903097" class="icon" viewBox="0 0 1024 1024" version="1.1" xmlns="http://www.w3.org/2000/svg" p-id="2244" xmlns:xlink="http://www.w3.org/1999/xlink" width="200" height="200"><defs><style type="text/css"></style></defs><path d="M825.344 790.528V569.344c0-10.24-2.048-20.48-6.144-28.672-30.72-71.68-61.44-143.36-90.112-217.088-6.144-14.336-12.288-18.432-28.672-18.432H303.104c-14.336 0-22.528 4.096-28.672 18.432-30.72 71.68-65.536 143.36-96.256 215.04-4.096 10.24-6.144 22.528-8.192 34.816v215.04c0 26.624 0 26.624 26.624 26.624h604.16c22.528-2.048 24.576-4.096 24.576-24.576z m-112.64-366.592c2.048-26.624 0-53.248 0-79.872V327.68h4.096c30.72 73.728 61.44 147.456 94.208 225.28-26.624 0-47.104 2.048-67.584 0-4.096 0-12.288-8.192-14.336-16.384-10.24-36.864-18.432-73.728-16.384-112.64z m14.336 129.024h-81.92c-16.384 0-24.576 4.096-24.576 22.528-2.048 59.392-55.296 106.496-118.784 106.496-61.44 0-114.688-47.104-116.736-106.496 0-18.432-8.192-24.576-24.576-22.528-26.624 2.048-53.248 0-83.968 0 10.24-28.672 16.384-51.2 26.624-73.728 2.048-4.096 10.24-8.192 16.384-8.192h372.736c4.096 0 14.336 2.048 14.336 6.144 4.096 22.528 12.288 47.104 20.48 75.776zM299.008 331.776c0-12.288 4.096-16.384 16.384-16.384h370.688c12.288 0 16.384 4.096 16.384 16.384v110.592c0 14.336-6.144 16.384-18.432 16.384H319.488c-16.384 0-20.48-4.096-20.48-20.48v-106.496z m-18.432 2.048c2.048 0 4.096 0 4.096 2.048 0 4.096 2.048 10.24 2.048 14.336 0 22.528-2.048 47.104 0 69.632 2.048 38.912-6.144 77.824-18.432 114.688-4.096 12.288-10.24 18.432-22.528 18.432-18.432-2.048-38.912 0-63.488 0 34.816-75.776 65.536-147.456 98.304-219.136z m-73.728 466.944c-18.432 0-22.528-6.144-22.528-24.576v-192.512c0-16.384 6.144-22.528 22.528-20.48 47.104 0 94.208 2.048 143.36 0 18.432 0 24.576 6.144 26.624 22.528 10.24 55.296 51.2 96.256 106.496 104.448 67.584 10.24 135.168-34.816 145.408-102.4 4.096-20.48 10.24-24.576 30.72-24.576 47.104 2.048 92.16 0 139.264 0 14.336 0 18.432 4.096 18.432 18.432v200.704c0 16.384-6.144 18.432-20.48 18.432H206.848zM704.512 886.784c-6.144-10.24-12.288-10.24-22.528-6.144-16.384 6.144-34.816 12.288-53.248 14.336-28.672 0-55.296-4.096-86.016-6.144 22.528 40.96 49.152 73.728 90.112 96.256 6.144 4.096 14.336 6.144 20.48 6.144 12.288 0 26.624-4.096 38.912-6.144 10.24-2.048 18.432-2.048 26.624 8.192 4.096 6.144 14.336 12.288 20.48 12.288 34.816-2.048 65.536-12.288 96.256-26.624-34.816 0-65.536-12.288-90.112-36.864-14.336-18.432-28.672-36.864-40.96-55.296z m88.064 98.304c-16.384 4.096-30.72 8.192-45.056 8.192-8.192 0-18.432-4.096-22.528-10.24-10.24-10.24-18.432-14.336-30.72-10.24-63.488 20.48-102.4-26.624-126.976-71.68 8.192 0 16.384 0 24.576 2.048 30.72 6.144 61.44 2.048 92.16-10.24 4.096-2.048 14.336 2.048 16.384 4.096 22.528 34.816 49.152 61.44 88.064 77.824 0 2.048 0 4.096 4.096 10.24zM903.168 20.48c-10.24 12.288-16.384 24.576-26.624 32.768-10.24 8.192-12.288 18.432-12.288 30.72 2.048 49.152-8.192 96.256-38.912 135.168v4.096c100.352-30.72 100.352-133.12 77.824-202.752z m-49.152 176.128c16.384-38.912 20.48-77.824 20.48-118.784 0-10.24 12.288-20.48 20.48-30.72 22.528 40.96 4.096 139.264-40.96 149.504zM67.584 352.256c10.24 38.912 32.768 63.488 65.536 71.68 4.096-12.288 8.192-24.576 12.288-34.816-14.336-4.096-30.72-4.096-43.008-10.24-12.288-6.144-22.528-16.384-34.816-26.624zM710.656 169.984c-2.048 12.288-4.096 22.528-6.144 30.72-4.096 10.24-10.24 18.432-12.288 28.672-2.048 6.144 2.048 12.288 2.048 20.48 22.528-22.528 30.72-55.296 16.384-79.872z" p-id="2245"></path></svg>