<?xml version="1.0" standalone="no"?><!DOCTYPE svg PUBLIC "-//W3C//DTD SVG 1.1//EN"
        "http://www.w3.org/Graphics/SVG/1.1/DTD/svg11.dtd">
<svg t="1645643406063" class="icon" viewBox="0 0 1024 1024" version="1.1" xmlns="http://www.w3.org/2000/svg" p-id="5478"
     xmlns:xlink="http://www.w3.org/1999/xlink" width="200" height="200">
    <defs>
        <style type="text/css"></style>
    </defs>
    <path d="M830.4528125 378.4221875h-68.94c-9.8175 137.296875-124.021875 245.6971875-263.8303125 245.6971875-146.23125001 0-264.774375-118.543125-264.774375-264.774375 0-22.2740625 3.065625-43.7653125 8.21812499-64.408125h589.3275c23.056875 0 41.743125 18.68625001 41.74312501 41.743125-0.001875 23.0559375-18.6871875 41.7421875-41.7440625 41.7421875z m-544.91156249 0c15.85125001 110.784375 124.903125 182.8546875 212.17312499 182.8546875 88.5075 0 188.8546875-66.365625 206.270625-182.8546875h-418.44374999zM497.6815625 94.56874999c170.10374999 0 217.7484375 77.1271875 252.024375 183.66937501H245.691875c34.275-106.5421875 61.01624999-183.669375 251.990625-183.66937501zM355.10374999 672.0275c0-49.7653125 15.6525-58.1803125 15.6525-62.9728125 27.133125 50.090625 117.56624999 89.420625 117.56625001 89.420625l-0.523125 129.3703125S355.10374999 728.380625 355.10374999 672.0275z m165.73125001 26.446875s90.4659375-39.3290625 117.6-89.42062501c0 4.7925 17.74125001 8.5125 17.74124999 62.97187501 0 56.355-134.8171875 155.8190625-134.81718749 155.8190625l-0.523125-129.3703125z m-216.345-36.1978125h33.395625v32.8725h-16.69875c-9.3909375 0-31.730625 53.9409375-31.73062501 53.9409375l-68.22374999 146.589375h563.956875l-56.81062501-146.589375s-23.6765625-53.9409375-39.85124999-53.9409375h-16.6978125v-32.8725h44.5134375c36.8840625 0 66.789375 66.7875 66.789375 66.7875l71.55 200.36625H151.8021875l85.8984375-200.3671875c0 0.0009375 29.9053125-66.7875 66.789375-66.7875z"
          p-id="5479"></path>
</svg>