<?xml version="1.0" standalone="no"?><!DOCTYPE svg PUBLIC "-//W3C//DTD SVG 1.1//EN"
        "http://www.w3.org/Graphics/SVG/1.1/DTD/svg11.dtd">
<svg t="1645643930760" class="icon" viewBox="0 0 1024 1024" version="1.1" xmlns="http://www.w3.org/2000/svg" p-id="2992"
     xmlns:xlink="http://www.w3.org/1999/xlink" width="200" height="200">
    <defs>
        <style type="text/css"></style>
    </defs>
    <path d="M512 98.461538q72.546462 0 136.841846 5.12a425.905231 425.905231 0 0 1 114.018462 23.492924 175.261538 175.261538 0 0 1 75.638154 53.16923A142.198154 142.198154 0 0 1 866.461538 272.128V686.670769a140.012308 140.012308 0 0 1-12.425846 58.230154 158.601846 158.601846 0 0 1-33.161846 47.970462 189.715692 189.715692 0 0 1-50.806154 32.669538 145.211077 145.211077 0 0 1-59.076923 12.228923l66.323693 65.339077V925.538462H246.705231v-22.508308l66.323692-65.339077a146.018462 146.018462 0 0 1-59.076923-12.228923 189.912615 189.912615 0 0 1-50.786462-32.669539 157.223385 157.223385 0 0 1-33.161846-47.970461 139.677538 139.677538 0 0 1-12.425846-58.230154V272.049231a142.198154 142.198154 0 0 1 27.963077-91.884308 175.872 175.872 0 0 1 75.638154-53.169231 426.515692 426.515692 0 0 1 114.097231-23.492923Q439.453538 98.461538 512 98.461538z m-43.480615 173.587693H246.705231v218.584615h221.814154v-218.584615z m-155.569231 479.881846a55.886769 55.886769 0 0 0 24.851692-6.124308 78.217846 78.217846 0 0 0 20.736-14.296615 50.412308 50.412308 0 0 0 15.537231-20.440616 62.582154 62.582154 0 0 0 5.198769-24.477538 61.046154 61.046154 0 0 0-5.198769-25.6 75.539692 75.539692 0 0 0-15.537231-21.425231 66.619077 66.619077 0 0 0-91.175384 0 75.500308 75.500308 0 0 0-15.616 21.425231 60.475077 60.475077 0 0 0-5.19877 25.6 62.227692 62.227692 0 0 0 5.19877 24.477538 50.235077 50.235077 0 0 0 15.53723 20.440616 79.202462 79.202462 0 0 0 20.736 14.296615 56.457846 56.457846 0 0 0 24.930462 6.124308z m464.344615-479.881846H555.579077v218.584615h221.794461v-218.584615z m-66.323692 479.881846a55.827692 55.827692 0 0 0 24.851692-6.124308 77.902769 77.902769 0 0 0 20.736-14.296615 50.235077 50.235077 0 0 0 15.537231-20.440616 62.227692 62.227692 0 0 0 5.198769-24.477538 60.731077 60.731077 0 0 0-5.198769-25.6 75.145846 75.145846 0 0 0-15.537231-21.425231 64.452923 64.452923 0 0 0-20.736-13.233231 62.877538 62.877538 0 0 0-49.703384 0 64.669538 64.669538 0 0 0-20.736 13.233231 74.003692 74.003692 0 0 0-15.616 21.425231 60.770462 60.770462 0 0 0-5.19877 25.6 62.582154 62.582154 0 0 0 5.19877 24.477538 50.235077 50.235077 0 0 0 15.53723 20.440616 79.202462 79.202462 0 0 0 20.736 14.296615 56.457846 56.457846 0 0 0 24.930462 6.124308z m0 0"
          p-id="2993"></path>
</svg>