<?xml version="1.0" standalone="no"?><!DOCTYPE svg PUBLIC "-//W3C//DTD SVG 1.1//EN"
        "http://www.w3.org/Graphics/SVG/1.1/DTD/svg11.dtd">
<svg t="1645642673507" class="icon" viewBox="0 0 1024 1024" version="1.1" xmlns="http://www.w3.org/2000/svg"
     p-id="17151" xmlns:xlink="http://www.w3.org/1999/xlink" width="200" height="200">
    <defs>
        <style type="text/css"></style>
    </defs>
    <path d="M719.699423 235.047604a71.394817 71.394817 0 0 0 9.757292-25.107177 29.94616 29.94616 0 0 0-29.152884-28.161289 42.321261 42.321261 0 0 0-38.910176 21.89441l-149.334159 216.207306-149.33416-216.326297a42.479916 42.479916 0 0 0-38.910175-21.894411 29.94616 29.94616 0 0 0-29.152884 28.161289 110.741294 110.741294 0 0 0 9.757292 25.107178 9.00368 9.00368 0 0 1 3.292094 6.227215l133.270326 197.644652H362.883991c-23.798272 0-35.697409 9.439981-35.697409 28.161289 2.141845 14.715265 14.080645 23.004997 35.697409 25.107178h113.557424v56.322578H362.883991c-23.798272 0-35.697409 9.439981-35.697409 28.161289 2.141845 14.55661 14.080645 23.004997 35.697409 25.107177h113.557424v125.377233c0 20.783825 11.899136 31.334392 35.697408 31.334392s35.697409-10.550567 35.697409-31.334392v-125.297905h113.557423c21.537437-2.062517 33.436573-10.550567 35.697409-25.107177 0-18.879963-11.899136-28.161289-35.697409-28.161289h-113.557423v-56.322579h113.557423c21.537437-2.062517 33.436573-10.391912 35.697409-25.107177 0-18.879963-11.899136-28.161289-35.697409-28.161289h-77.622032l133.111671-197.485998a7.932757 7.932757 0 0 1 3.014448-6.385869z m238.498354 391.243599l-84.007902 8.726034a24.789867 24.789867 0 0 0-20.228532 14.278963 23.798272 23.798272 0 0 0 2.578146 23.798273l8.329396 10.947205-368.159275 264.874772-98.921486-118.991362a30.89809 30.89809 0 0 0-41.36933-5.116628c-41.488322 29.827168-103.125847 73.655653-113.160786 79.882867a28.597591 28.597591 0 0 0-14.516946 34.943797 30.342797 30.342797 0 0 0 38.037572 18.32467 701.017779 701.017779 0 0 0 102.21358-69.887594l98.921486 118.991363a30.501453 30.501453 0 0 0 23.401635 10.828214 30.065151 30.065151 0 0 0 17.928032-5.830577l391.124608-281.255917 6.028895 7.932758a25.464152 25.464152 0 0 0 20.228532 9.836619 16.103498 16.103498 0 0 0 2.578146 0 25.503815 25.503815 0 0 0 20.387187-14.278963l34.190185-74.76624a23.798272 23.798272 0 0 0-2.736802-24.115582 26.257427 26.257427 0 0 0-22.965333-9.281327zM512.059496 5.949568A498.216834 498.216834 0 0 0 5.949568 494.805748a477.789983 477.789983 0 0 0 148.18391 345.59058 30.303134 30.303134 0 0 0 21.25979 8.448387 30.937754 30.937754 0 0 0 21.25979-8.448387 28.28028 28.28028 0 0 0 0-41.05202 420.436147 420.436147 0 0 1-130.652516-304.53856 446.217609 446.217609 0 0 1 891.919588 0 30.104815 30.104815 0 0 0 60.169966 0A498.17717 498.17717 0 0 0 512.059496 5.949568z"
          p-id="17152"></path>
</svg>