<?xml version="1.0" standalone="no"?><!DOCTYPE svg PUBLIC "-//W3C//DTD SVG 1.1//EN"
        "http://www.w3.org/Graphics/SVG/1.1/DTD/svg11.dtd">
<svg t="1645385379661" class="icon" viewBox="0 0 1024 1024" version="1.1" xmlns="http://www.w3.org/2000/svg" p-id="3594"
     xmlns:xlink="http://www.w3.org/1999/xlink" width="200" height="200">
    <defs>
        <style type="text/css"></style>
    </defs>
    <path d="M238.752 180c-13.408 0-25.184 7.424-30.72 18.72-17.648 36.08-42.656 89.44-55.28 126.176-8.96 26.08-10.912 55.008-6.464 79.84 4.544 25.456 14.88 42.224 25.888 49.936 20.256 14.192 48.032 17.072 69.984 8.544 20-7.76 35.744-24.992 35.744-56.208a32 32 0 0 1 64 0c0 21.344 8.272 35.52 19.84 44.96 12.32 10.096 30.08 16.032 49.2 16.032 19.136 0 36.88-5.92 49.216-16.016 11.568-9.456 19.84-23.632 19.84-44.976a32 32 0 0 1 64 0c0 21.344 8.272 35.52 19.84 44.96 12.32 10.096 30.08 16.032 49.216 16.032 19.12 0 36.864-5.92 49.2-16.016 11.568-9.456 19.84-23.632 19.84-44.976a32 32 0 0 1 64 0c0 31.216 15.744 48.448 35.744 56.208 21.952 8.528 49.728 5.648 69.984-8.544 11.024-7.712 21.344-24.48 25.888-49.92 4.448-24.848 2.48-53.76-6.464-79.84-12.624-36.752-37.632-90.112-55.28-126.208a33.952 33.952 0 0 0-30.72-18.704 32 32 0 0 1 0-64c37.088 0 71.6 20.672 88.192 54.576l-28.736 14.08 28.752-14.08c17.552 35.904 44.24 92.56 58.32 133.536 12.48 36.352 15.296 76.288 8.944 111.888-6.24 34.96-22.32 70.192-52.192 91.104-38.08 26.656-88.352 31.888-129.84 15.776a120.272 120.272 0 0 1-45.536-30.912 119.36 119.36 0 0 1-10.368 9.552c-25.568 20.912-58.336 30.48-89.728 30.48-31.408 0-64.176-9.568-89.744-30.48a119.328 119.328 0 0 1-11.312-10.56 119.328 119.328 0 0 1-11.312 10.56c-25.568 20.912-58.336 30.48-89.744 30.48-31.392 0-64.16-9.568-89.728-30.48a119.36 119.36 0 0 1-10.368-9.552 120.272 120.272 0 0 1-45.536 30.912c-41.488 16.112-91.76 10.88-129.84-15.776C105.6 486.192 89.536 450.96 83.28 416c-6.352-35.584-3.52-75.536 8.96-111.888 14.048-40.976 40.752-97.648 58.304-133.536 16.608-33.92 51.12-54.576 88.208-54.576a32 32 0 1 1 0 64z"
          p-id="3595"></path>
    <path d="M208 148a32 32 0 0 1 32-32h544a32 32 0 1 1 0 64H240a32 32 0 0 1-32-32zM362.48 217.44a32 32 0 0 1 21.12 40l-21.024 68a32 32 0 1 1-61.152-18.88l21.024-68a32 32 0 0 1 40.032-21.12z m307.04 0a32 32 0 0 1 40.032 21.12l21.024 68a32 32 0 1 1-61.152 18.88l-21.024-68a32 32 0 0 1 21.12-40z m-152.48-1.44a32 32 0 0 1 32 32v68a32 32 0 1 1-64 0V248a32 32 0 0 1 32-32zM172 560a32 32 0 0 1 32 32v212a32 32 0 0 0 32 32h552a32 32 0 0 0 32-32V592a32 32 0 1 1 64 0v212a96 96 0 0 1-96 96h-552a96 96 0 0 1-96-96V592a32 32 0 0 1 32-32z"
          p-id="3596"></path>
    <path d="M528 880a32 32 0 0 0 32-32v-132a32 32 0 0 1 32-32h44a32 32 0 0 1 32 32V848a32 32 0 1 0 64 0v-132a96 96 0 0 0-96-96H592a96 96 0 0 0-96 96V848a32 32 0 0 0 32 32z"
          p-id="3597"></path>
</svg>