<?xml version="1.0" standalone="no"?><!DOCTYPE svg PUBLIC "-//W3C//DTD SVG 1.1//EN"
        "http://www.w3.org/Graphics/SVG/1.1/DTD/svg11.dtd">
<svg t="1645642522357" class="icon" viewBox="0 0 1024 1024" version="1.1" xmlns="http://www.w3.org/2000/svg"
     p-id="16018" xmlns:xlink="http://www.w3.org/1999/xlink" width="200" height="200">
    <defs>
        <style type="text/css"></style>
    </defs>
    <path d="M771.584 601.088l3.072 1.536 36.864-12.288-0.512 1.536c20.48 22.528 24.064 55.296 9.216 81.92-11.264 19.968-32.768 31.744-55.808 31.232 2.56 17.408-3.584 35.328-16.384 47.104 0 0-15.36 22.016-53.248 15.872 0.512 17.92-8.192 34.304-22.528 44.544 0 0-29.696 26.112-75.776-5.632-6.144 19.456-23.552 33.792-44.032 36.352-14.848 2.56-30.208-1.536-42.496-11.264 0 0-1.024 2.048-3.072 5.12l-2.56-4.608c-2.048-18.432-6.656-36.864-13.312-54.272 0-0.512-0.512-0.512-0.512-1.024 4.608 3.584 10.752 8.192 18.944 14.336l21.504 16.384s34.304 13.824 36.352-21.504L486.4 722.944s-9.216-25.6 20.48-21.504l120.832 87.552c11.776 5.12 25.088 0.512 31.744-10.752 6.656-11.264 4.608-25.6-5.12-34.816L525.824 647.68s-11.264-26.624 17.92-24.576L696.32 734.208s21.504 8.704 30.72-7.68c7.168-10.24 7.168-23.552 0-33.792L558.592 566.272s-10.24-30.208 21.504-22.528l173.568 127.488c14.336 5.12 30.208-0.512 37.888-13.312 8.704-13.824 6.144-31.744-5.12-43.008l-14.848-13.824z m-389.12-268.8c-5.632 5.12-10.24 10.752-14.848 15.872 2.56-5.12 6.144-10.24 9.728-14.848h-88.576l19.456-41.472h128c-2.56 1.024-17.408 5.632-53.76 40.448zM212.48 508.416l58.88 76.8s2.56-0.512 6.144-1.024l-2.56 5.632-27.136 27.136-6.656 0.512 4.096-6.144-49.664-65.536 16.896-37.376z m70.144-240.64L159.232 533.504c-4.608 12.288-18.432 18.432-30.72 13.824-1.536-0.512-2.56-1.024-4.096-2.048l-49.664-26.624c-16.384-8.704-8.192-30.208-8.192-30.208S193.024 225.792 193.024 217.6c3.584-10.24 14.848-15.36 25.6-11.776 1.024 0.512 1.536 0.512 2.56 1.024l54.272 27.136c18.944 11.264 7.168 33.792 7.168 33.792z"
          p-id="16019"></path>
    <path d="M939.52 521.728l-50.688 24.064c-16.896 8.192-28.16-11.776-28.16-11.776s-122.88-264.704-129.024-269.824c-5.632-10.24-2.048-22.528 7.68-28.672 0.512 0 1.024-0.512 1.536-0.512l54.272-27.136c19.968-8.704 30.208 14.848 30.208 14.848L951.808 486.4c6.656 12.288 2.048 27.136-9.728 33.792-1.024 0.512-1.536 1.024-2.56 1.536z m-128.512 68.608l-36.864 12.288-3.072-1.536-230.4-206.848c-27.136-12.8-59.392-2.048-72.704 24.576-4.608 46.592-40.96 83.968-87.552 90.624 0 0-56.32-4.608-43.008-42.496 0 0 16.384-22.528 14.848-70.144 1.536-16.896 6.656-33.28 15.36-48.128 4.608-5.12 9.728-10.752 14.848-15.872 36.352-35.328 50.688-39.936 53.248-40.448h5.632s54.784-32.256 96.256-29.184c0 0 53.76 3.072 68.608 11.264 0 0 71.68 23.552 103.424 17.92L829.44 547.84l-18.432 42.496zM241.152 616.96l6.656-0.512 27.136-27.136 2.56-5.12c11.264-1.536 35.84-2.048 46.08 16.896 8.704 12.8 11.264 28.672 7.168 43.52 0 0 5.632 6.144 8.704 9.728 15.36-3.584 31.232 1.024 42.496 12.8 9.728 9.216 14.336 22.016 12.8 35.328 3.584 4.096 8.192 7.68 12.8 11.264 0 0 26.112-6.656 38.4 9.216 8.704 8.704 13.824 19.968 14.336 32.256l24.064 17.92s2.56 2.048 7.168 5.632c0 0.512 0.512 0.512 0.512 1.024 6.656 17.408 11.264 35.328 13.312 54.272l2.56 4.608c-8.192 12.8-32.768 43.52-65.024 18.944-14.848-13.312-17.92-35.328-7.68-52.224 0 0-33.792 55.296-74.24 13.824 0 0-22.528-17.408-1.536-53.76 0 0-32.256 37.376-67.072 3.584 0 0-24.064-20.48-4.608-57.856 0 0-28.16 36.352-71.168 2.048-14.848-14.336-15.872-37.376-3.584-53.76l28.16-42.496z"
          p-id="16020"></path>
</svg>