<?xml version="1.0" standalone="no"?><!DOCTYPE svg PUBLIC "-//W3C//DTD SVG 1.1//EN"
        "http://www.w3.org/Graphics/SVG/1.1/DTD/svg11.dtd">
<svg t="1645642687216" class="icon" viewBox="0 0 1024 1024" version="1.1" xmlns="http://www.w3.org/2000/svg"
     p-id="17290" xmlns:xlink="http://www.w3.org/1999/xlink" width="200" height="200">
    <defs>
        <style type="text/css"></style>
    </defs>
    <path d="M373.472 945.216h-1.888C138.688 944.864 12.896 891.808 0.032 865.696v-179.52a425.6 425.6 0 0 0 74.432 28.64 1063.04 1063.04 0 0 0 297.024 37.92h1.664c22.848 0 44-1.6 65.92-2.56a321.536 321.536 0 0 0 112.384 185.984 1749.152 1749.152 0 0 1-177.984 9.056zM0.512 455.68c99.424 51.584 254.88 68.128 371.424 68.224h2.368c31.008 0 60.096-3.232 90.016-5.12a451.52 451.52 0 0 0-34.432 170.656v1.824c-19.392 1.248-38.848 1.408-58.24 0.448C138.912 691.328 13.184 637.344 0.16 610.624v-154.912l0.352-0.032z m0.224-230.368c23.776 12.512 48.704 22.688 74.432 30.368a1000.512 1000.512 0 0 0 297.024 40.16h1.376c116.544 0 278.56-16.896 377.728-70.016v111.04c-86.656 7.456-204.832 52.16-248.128 118.176a1321.44 1321.44 0 0 1-130.848 8.224C139.552 462.976 13.888 406.816 0.8 379.04V225.152l-0.064 0.16z m0-63.04c14.88-30.304 139.552-83.488 369.696-83.488h1.888c224 0.32 355.264 50.688 377.504 81.6-22.208 30.752-152.896 80.64-375.968 80.64h-1.6C140.864 240.736 15.616 187.008 0.736 163.488v-1.28 0.064z m665.664 513.728l85.536-84.384 85.344 84.48-85.536 84.416-85.344-84.576v0.064z m278.176-191.648a271.872 271.872 0 0 0-192.128-78.784h-0.128a271.456 271.456 0 0 0-191.968 78.464 266.592 266.592 0 0 0-3.424 376.992l2.944 2.944a271.84 271.84 0 0 0 192.256 78.784h0.192a271.328 271.328 0 0 0 191.904-78.432 266.56 266.56 0 0 0 3.392-377.024l-2.88-2.912-0.16-0.032z m-192.992 342.272l-152.128-150.688 152.512-150.336 152.064 150.656-152.448 150.368z"
          p-id="17291"></path>
</svg>