<?xml version="1.0" standalone="no"?><!DOCTYPE svg PUBLIC "-//W3C//DTD SVG 1.1//EN"
        "http://www.w3.org/Graphics/SVG/1.1/DTD/svg11.dtd">
<svg t="1645642563553" class="icon" viewBox="0 0 1024 1024" version="1.1" xmlns="http://www.w3.org/2000/svg"
     p-id="16158" xmlns:xlink="http://www.w3.org/1999/xlink" width="200" height="200">
    <defs>
        <style type="text/css"></style>
    </defs>
    <path d="M984.095417 505.595092c-3.899962-7.699925-15.49985-23.199775-27.099737-38.699624-11.599887-15.49985-27.099737-30.999699-27.099737-38.699625-7.699925-11.599887-7.699925-34.799662-3.899962-73.599285 3.899962-19.399812 3.899962-38.699624 3.899962-46.499549-7.699925-19.399812-27.099737-38.699624-61.899399-50.299511-57.999437-19.399812-65.799361-27.099737-88.999136-73.599286-15.49985-42.599586-27.099737-58.099436-38.699624-65.799361-15.49985-3.899962-42.599586-3.899962-73.499287 3.899962-50.299512 7.699925-65.799361 3.899962-108.398947-30.999699-34.799662-27.099737-61.899399-34.799662-85.099174-19.399812-7.699925 3.899962-23.199775 15.49985-38.699625 27.099737-42.599586 38.699624-46.39955 38.699624-116.098873 30.999699-30.999699-3.899962-38.699624-3.899962-50.299511 0-19.299813 7.699925-30.999699 27.099737-42.599587 61.999398-19.299813 54.199474-27.099737 61.999398-73.499286 85.199173-42.599586 15.49985-57.999437 27.099737-65.799362 38.699625-3.899962 15.49985-3.899962 42.599586 3.899962 73.599285 7.699925 50.299512 3.899962 65.799361-30.999699 112.29891-27.099737 30.999699-34.799662 58.099436-19.299812 81.299211 3.899962 7.699925 15.49985 23.199775 27.099737 38.699624 11.599887 15.49985 27.099737 30.999699 27.099737 38.699625 7.699925 11.599887 7.699925 34.799662 3.899962 73.599285-3.899962 19.399812-3.899962 38.699624-3.899962 46.499549 7.699925 19.399812 27.099737 38.699624 61.899399 50.299512 57.999437 19.399812 65.799361 27.099737 88.999136 73.599285 15.49985 42.599586 27.099737 58.099436 38.699624 65.799361 15.49985 3.899962 42.599586 3.899962 73.499287 0 50.299512-11.599887 65.799361-7.699925 104.498985 23.199775 7.699925 7.699925 23.199775 15.49985 30.999699 23.199775 19.299813 7.699925 42.599586 11.599887 57.999437 0 7.699925-3.899962 23.199775-15.49985 38.699625-27.099737 15.49985-11.599887 30.999699-27.099737 38.699624-27.099737 11.599887-7.699925 34.799662-7.699925 73.499287-3.899962 19.299813 3.899962 38.699624 3.899962 46.399549 3.899962 19.299813-7.699925 38.699624-27.099737 50.299512-61.999398 19.299813-58.099436 27.099737-65.799361 73.499286-89.099135 42.599586-15.49985 57.999437-27.099737 65.799362-38.699625 3.899962-15.49985 3.899962-42.599586 0-73.599285-11.599887-50.299512-7.699925-65.799361 27.099737-108.398948 27.099737-34.799662 34.899661-61.899399 19.399811-85.099174zM690.698265 620.393978c20.299803 0 36.799643 15.699848 36.799643 36.199648 0 20.499801-16.49984 35.399656-36.799643 35.399657H548.799643v89.199134c0 20.499801-15.199852 37.09964-35.499656 37.09964s-35.499655-16.599839-35.499655-37.09964V691.993283H333.301735c-20.299803 0-36.799643-14.899855-36.799643-35.399657s16.49984-36.199649 36.799643-36.199648h144.598596v-41.099601H331.101756c-21.899787-0.399996-34.599664-15.299851-34.599664-35.799653 0-20.499801 12.999874-35.399656 35.899651-35.399656H427.000825L322.40184 325.396841c-10.199901-17.799827-4.09996-40.499607 13.499869-50.699507 17.599829-10.2999 40.099611-4.199959 50.299512 13.599867l125.598781 219.397871h0.199998c1.599984 0 3.299968 0.099999 4.799953 0.299997h0.499996l125.798778-219.797867c10.199901-17.699828 32.699683-23.799769 50.299512-13.599868 17.599829 10.199901 23.599771 32.899681 13.499869 50.699508L602.299123 508.095068h88.499141c20.299803 0 36.799643 15.699848 36.799643 36.199649 0 20.499801-16.49984 34.899661-36.799643 34.899661h-141.998621v41.099601h141.898622z"
          p-id="16159"></path>
</svg>