<?xml version="1.0" standalone="no"?><!DOCTYPE svg PUBLIC "-//W3C//DTD SVG 1.1//EN"
        "http://www.w3.org/Graphics/SVG/1.1/DTD/svg11.dtd">
<svg t="1645394349813" class="icon" viewBox="0 0 1024 1024" version="1.1" xmlns="http://www.w3.org/2000/svg" p-id="9724"
     xmlns:xlink="http://www.w3.org/1999/xlink" width="200" height="200">
    <defs>
        <style type="text/css"></style>
    </defs>
    <path d="M915.16 435.55c-34.35-130.59-81.05-266.31-237.3-240.6-60.25 9.92-105.28 46.69-172.8 48.24-56.4 1.3-101.29-33.73-153.27-41.48C194.76 178.28 159.22 254.8 116.6 396.9 92.51 477.24 16 754.16 110.67 818.1c95.94 64.78 195.41-121.03 265.97-150.47 61-25.41 193.25-26.1 254.23-8.9 82.67 23.34 166.91 180.34 259.1 157.49 126.25-31.2 45.97-301.67 25.15-380.68l0.04 0.01zM325.55 563.7c-67.2 0.43-122.01-55.04-122.43-123.91s53.71-125.05 120.9-125.48c66.54-0.43 121.08 54.01 122.41 122.19 0.81 69.31-53.27 126.2-120.88 127.2z m380.04-236.21c13.9-14.55 36.6-15.03 51.07-1.07 14.15 13.68 14.81 36.53 1.46 51.04-0.16 0.17-0.32 0.35-0.48 0.52-13.9 14.51-36.56 14.99-51.03 1.07-14.18-13.64-14.88-36.47-1.58-51 0.18-0.19 0.35-0.38 0.53-0.57l0.03 0.01zM639.3 449.88c-14.17-13.64-14.87-36.48-1.55-51 0.18-0.19 0.35-0.38 0.53-0.57 13.89-14.54 36.57-15.01 51.03-1.07 14.18 13.65 14.87 36.5 1.55 51.03-0.16 0.17-0.32 0.35-0.49 0.52-13.9 14.54-36.6 15.01-51.07 1.07v0.02z m118.67 64.51c-13.9 14.54-36.6 15.01-51.07 1.07-14.17-13.65-14.85-36.48-1.53-51 0.17-0.18 0.34-0.37 0.51-0.55 13.9-14.54 36.6-15.01 51.05-1.05 14.16 13.66 14.84 36.49 1.51 51-0.16 0.18-0.33 0.35-0.49 0.53h0.02z m67.29-70.84c-13.89 14.52-36.57 15-51.03 1.07-14.17-13.59-14.91-36.39-1.64-50.91 0.2-0.22 0.4-0.43 0.6-0.64 13.88-14.56 36.58-15.03 51.03-1.07 14.17 13.65 14.85 36.48 1.53 51-0.17 0.18-0.34 0.37-0.51 0.55h0.02z m-503.84-77.76c-39.46 1.45-70.31 35.4-68.89 75.84 1.41 40.44 34.54 72.05 74 70.61 39.03-1.43 69.72-34.7 68.93-74.72-1.11-40.76-34.25-72.88-74.02-71.74-0.01 0.01-0.01 0.01-0.02 0.01z"
          p-id="9725"></path>
</svg>