<?xml version="1.0" standalone="no"?><!DOCTYPE svg PUBLIC "-//W3C//DTD SVG 1.1//EN"
        "http://www.w3.org/Graphics/SVG/1.1/DTD/svg11.dtd">
<svg t="1645642702473" class="icon" viewBox="0 0 1024 1024" version="1.1" xmlns="http://www.w3.org/2000/svg"
     p-id="17429" xmlns:xlink="http://www.w3.org/1999/xlink" width="200" height="200">
    <defs>
        <style type="text/css"></style>
    </defs>
    <path d="M512 1023.999121A512.115266 512.115266 0 0 1 312.638363 40.265728a512.115266 512.115266 0 0 1 398.607568 943.467665A508.412671 508.412671 0 0 1 512 1023.999121z m0-924.491862C284.521777 99.507259 99.507699 284.521338 99.507699 511.99956S284.521777 924.491861 512 924.491861 924.492301 739.477783 924.492301 511.99956 739.362517 99.507259 512 99.507259z"
          p-id="17430"></path>
    <path d="M806.356357 452.758029H225.280246v-108.763748h315.183458l-55.886053-54.960405 76.25033-77.523097 245.528376 241.24725zM470.924329 802.537616L225.395952 561.174659H806.472064v108.763749H491.288605l55.886054 54.960405-76.25033 77.638803z"
          p-id="17431"></path>
</svg>