<?xml version="1.0" standalone="no"?><!DOCTYPE svg PUBLIC "-//W3C//DTD SVG 1.1//EN"
        "http://www.w3.org/Graphics/SVG/1.1/DTD/svg11.dtd">
<svg t="1645642615127" class="icon" viewBox="0 0 1024 1024" version="1.1" xmlns="http://www.w3.org/2000/svg"
     p-id="16872" xmlns:xlink="http://www.w3.org/1999/xlink" width="200" height="200">
    <defs>
        <style type="text/css"></style>
    </defs>
    <path d="M891.014 919.275l-751.154 0.017c-17.975-0.017-34.445-16.537-34.486-34.487V671.868c0-34.589 17.37-52.689 35.606-35.348l101.585 79.955c13.648 11.687 34.159 27.584 45.575 13.724l116.429-141.367c11.418-13.859 32.013-33.427 45.77-21.858l100.187 87.228c13.751 11.553 42.225 31.726 53.415 17.666l249.285-300.427c33.671-38.437 71.223-29.419 71.223 17.673v495.69c-0.001 17.95-15.469 34.487-33.436 34.47zM598.671 550.304a55.2 55.2 0 0 1-37.754 20.931c-14.929 1.769-29.807-3.013-41.266-12.646l-113.01-95.177-113.506 149.821c-9.069 11.939-22.574 19.718-37.46 21.489a56.488 56.488 0 0 1-6.509 0.386 55.11 55.11 0 0 1-34.917-12.496l-99.058-81.049c-23.584-19.282-27.061-54.054-7.772-77.639 19.274-23.617 54.038-27.069 77.614-7.772l54.761 44.794 113.987-150.478a55.14 55.14 0 0 1 37.839-21.521c15.13-1.65 30.093 2.913 41.662 12.612l113.625 95.709 146.807-184.141-40.912-33.983c-29.03-24.106-22.582-50.224 14.331-58.028L879.9 116.112c36.906-7.805 48.322 10.305 25.37 40.263L598.673 550.3z"
          p-id="16873"></path>
</svg>