<?xml version="1.0" standalone="no"?><!DOCTYPE svg PUBLIC "-//W3C//DTD SVG 1.1//EN"
        "http://www.w3.org/Graphics/SVG/1.1/DTD/svg11.dtd">
<svg t="1645385257490" class="icon" viewBox="0 0 1024 1024" version="1.1" xmlns="http://www.w3.org/2000/svg" p-id="2877"
     xmlns:xlink="http://www.w3.org/1999/xlink" width="200" height="200">
    <defs>
        <style type="text/css"></style>
    </defs>
    <path d="M110.592 711.97218133h802.816c14.33053867 0 28.66107733-5.72347733 40.12987733-17.14858666 11.4688-11.42510933 17.21412267-25.71195733 17.21412267-39.97696 0-17.14858667-5.74532267-28.573696-17.21412267-39.99880534-11.4688-11.42510933-22.9376-17.14858667-40.12987733-17.14858666h-5.74532267c-11.4688-77.11402667-42.991616-145.70837333-94.59029333-205.67381334-51.62052267-59.98728533-114.688-99.98609067-189.24612267-122.83630933 2.86173867-5.72347733 2.86173867-11.42510933 2.86173867-14.286848 0-31.43543467-11.4688-59.98728533-34.4064-79.99761067C572.20573867 152.05444267 543.54466133 140.62933333 512 140.62933333s-60.20573867 11.42510933-80.2816 34.29717334c-20.07586133 22.82837333-34.4064 48.54033067-34.4064 79.95392v17.14858666a384.12834133 384.12834133 0 0 0-189.22427733 119.996416c-51.62052267 59.98728533-80.2816 128.53794133-91.7504 205.67381334h-5.74532267c-8.60706133 0-14.33053867 2.83989333-22.9376 5.72347733-8.60706133 2.83989333-14.33053867 8.56337067-17.19227733 11.42510933-5.74532267 5.701632-8.60706133 11.42510933-11.4688 17.12674134A53.65213867 53.65213867 0 0 0 53.248 654.82478933c0 14.286848 5.74532267 28.573696 17.21412267 39.99880534 11.4688 11.42510933 25.77749333 17.14858667 40.12987733 17.14858666M512 197.75488c14.33053867 0 28.68292267 5.72347733 40.15172267 17.14858667 11.4688 11.42510933 17.19227733 22.85021867 17.19227733 39.97696v2.883584c-11.4688 0-20.07586133-2.86173867-28.66107733-2.86173867h-57.344c-8.60706133 0-20.09770667 2.83989333-28.68292267 2.83989333v-2.83989333c0-14.286848 5.74532267-28.573696 17.21412267-39.99880533 11.4688-11.42510933 25.77749333-17.14858667 40.12987733-17.14858667M271.1552 503.43662933c17.21412267-28.573696 43.01346133-54.28565333 68.8128-77.135872 25.79933867-22.85021867 60.20573867-37.13706667 94.61213867-45.70043733h8.60706133c8.60706133 0 14.33053867 2.83989333 20.07586133 8.56337067 5.72347733 5.701632 8.60706133 11.42510933 8.60706134 19.98848 0 5.72347733 0 8.585216-2.883584 14.286848-2.86173867 2.83989333-5.72347733 8.56337067-8.585216 11.42510933-2.883584 2.86173867-8.60706133 5.72347733-11.4688 5.72347733-17.21412267 5.701632-34.4064 11.42510933-51.62052267 22.85021867a167.00757333 167.00757333 0 0 0-43.01346133 31.41358933 150.49250133 150.49250133 0 0 0-34.4064 39.99880534c-2.86173867 2.83989333-2.86173867 5.72347733-5.72347734 8.56337066-2.86173867 2.86173867-5.74532267 5.72347733-8.60706133 5.72347734-2.86173867 2.83989333-8.60706133 2.83989333-11.4688 2.83989333-8.60706133 0-14.33053867-2.83989333-20.07586133-8.56337067-5.72347733-5.701632-8.585216-11.42510933-8.585216-19.98848s2.83989333-14.286848 5.72347733-19.98848m642.2528 265.66109867H110.592c-14.33053867 0-28.66107733 5.72347733-40.12987733 17.14858667C58.99332267 797.671424 53.248 809.09653333 53.248 826.22327467c0 17.14858667 5.72347733 28.573696 17.21412267 39.99880533 11.44695467 11.42510933 25.77749333 17.14858667 40.12987733 17.14858667h802.816c14.33053867 0 28.66107733-5.72347733 40.12987733-17.14858667 11.4688-11.42510933 17.21412267-25.71195733 17.21412267-39.97696 0-17.14858667-5.72347733-28.573696-17.21412267-39.99880533-11.44695467-11.42510933-25.77749333-17.14858667-40.12987733-17.14858667"
          fill="#5e605f" p-id="2878"></path>
</svg>